<mxfile host="app.diagrams.net" modified="2022-03-21T14:02:14.556Z" agent="5.0 (Windows NT 10.0; WOW64) AppleWebKit/537.36 (KHTML, like Gecko) Chrome/99.0.4844.51 Safari/537.36" etag="42RWny1JJvMqACkvfwOr" version="17.0.0" type="github">
  <diagram id="9-2oIMu-12pq6GFrzAha" name="Page-1">
    <mxGraphModel dx="981" dy="526" grid="1" gridSize="10" guides="1" tooltips="1" connect="1" arrows="1" fold="1" page="1" pageScale="1" pageWidth="827" pageHeight="1169" math="1" shadow="0">
      <root>
        <mxCell id="0" />
        <mxCell id="1" parent="0" />
        <mxCell id="j5Y4_FG7IGkGTeBbFiSU-1" value="" style="endArrow=classic;html=1;rounded=0;" edge="1" parent="1">
          <mxGeometry width="50" height="50" relative="1" as="geometry">
            <mxPoint x="170" y="210" as="sourcePoint" />
            <mxPoint x="630" y="210" as="targetPoint" />
          </mxGeometry>
        </mxCell>
        <mxCell id="j5Y4_FG7IGkGTeBbFiSU-2" value="" style="endArrow=none;html=1;rounded=0;" edge="1" parent="1">
          <mxGeometry width="50" height="50" relative="1" as="geometry">
            <mxPoint x="200" y="230" as="sourcePoint" />
            <mxPoint x="200" y="172" as="targetPoint" />
          </mxGeometry>
        </mxCell>
        <mxCell id="j5Y4_FG7IGkGTeBbFiSU-5" value="" style="endArrow=none;dashed=1;html=1;rounded=0;" edge="1" parent="1">
          <mxGeometry width="50" height="50" relative="1" as="geometry">
            <mxPoint x="280" y="210" as="sourcePoint" />
            <mxPoint x="280" y="170" as="targetPoint" />
          </mxGeometry>
        </mxCell>
        <mxCell id="j5Y4_FG7IGkGTeBbFiSU-6" value="" style="endArrow=none;dashed=1;html=1;rounded=0;" edge="1" parent="1">
          <mxGeometry width="50" height="50" relative="1" as="geometry">
            <mxPoint x="360" y="210" as="sourcePoint" />
            <mxPoint x="360" y="170" as="targetPoint" />
          </mxGeometry>
        </mxCell>
        <mxCell id="j5Y4_FG7IGkGTeBbFiSU-7" value="" style="endArrow=none;dashed=1;html=1;rounded=0;" edge="1" parent="1">
          <mxGeometry width="50" height="50" relative="1" as="geometry">
            <mxPoint x="440" y="210" as="sourcePoint" />
            <mxPoint x="440" y="170" as="targetPoint" />
          </mxGeometry>
        </mxCell>
        <mxCell id="j5Y4_FG7IGkGTeBbFiSU-8" value="" style="endArrow=none;dashed=1;html=1;rounded=0;" edge="1" parent="1">
          <mxGeometry width="50" height="50" relative="1" as="geometry">
            <mxPoint x="520" y="210" as="sourcePoint" />
            <mxPoint x="520" y="170" as="targetPoint" />
          </mxGeometry>
        </mxCell>
        <mxCell id="j5Y4_FG7IGkGTeBbFiSU-9" value="" style="endArrow=none;html=1;rounded=0;" edge="1" parent="1">
          <mxGeometry width="50" height="50" relative="1" as="geometry">
            <mxPoint x="599" y="230" as="sourcePoint" />
            <mxPoint x="599" y="173" as="targetPoint" />
          </mxGeometry>
        </mxCell>
        <mxCell id="j5Y4_FG7IGkGTeBbFiSU-10" value="&lt;font face=&quot;宋体&quot; data-font-src=&quot;https://fonts.googleapis.com/css?family=%E5%AE%8B%E4%BD%93&quot;&gt;状态转移&lt;/font&gt;" style="text;html=1;strokeColor=none;fillColor=none;align=center;verticalAlign=middle;whiteSpace=wrap;rounded=0;" vertex="1" parent="1">
          <mxGeometry x="207" y="180" width="60" height="30" as="geometry" />
        </mxCell>
        <mxCell id="j5Y4_FG7IGkGTeBbFiSU-11" value="&lt;font face=&quot;宋体&quot;&gt;环境观察&lt;/font&gt;" style="text;html=1;strokeColor=none;fillColor=none;align=center;verticalAlign=middle;whiteSpace=wrap;rounded=0;" vertex="1" parent="1">
          <mxGeometry x="289" y="180" width="60" height="30" as="geometry" />
        </mxCell>
        <mxCell id="j5Y4_FG7IGkGTeBbFiSU-12" value="&lt;font face=&quot;宋体&quot;&gt;部分任务卸载决策&lt;/font&gt;" style="text;html=1;strokeColor=none;fillColor=none;align=center;verticalAlign=middle;whiteSpace=wrap;rounded=0;" vertex="1" parent="1">
          <mxGeometry x="368" y="178" width="60" height="30" as="geometry" />
        </mxCell>
        <mxCell id="j5Y4_FG7IGkGTeBbFiSU-13" value="&lt;font face=&quot;宋体&quot;&gt;决策执行&lt;/font&gt;" style="text;html=1;strokeColor=none;fillColor=none;align=center;verticalAlign=middle;whiteSpace=wrap;rounded=0;" vertex="1" parent="1">
          <mxGeometry x="450" y="181" width="60" height="30" as="geometry" />
        </mxCell>
        <mxCell id="j5Y4_FG7IGkGTeBbFiSU-14" value="&lt;font face=&quot;宋体&quot;&gt;即时回报&lt;/font&gt;" style="text;html=1;strokeColor=none;fillColor=none;align=center;verticalAlign=middle;whiteSpace=wrap;rounded=0;" vertex="1" parent="1">
          <mxGeometry x="529" y="182" width="60" height="30" as="geometry" />
        </mxCell>
        <mxCell id="j5Y4_FG7IGkGTeBbFiSU-15" value="" style="endArrow=classic;startArrow=classic;html=1;rounded=0;" edge="1" parent="1">
          <mxGeometry width="50" height="50" relative="1" as="geometry">
            <mxPoint x="200" y="220" as="sourcePoint" />
            <mxPoint x="600" y="220" as="targetPoint" />
          </mxGeometry>
        </mxCell>
        <mxCell id="j5Y4_FG7IGkGTeBbFiSU-16" value="&lt;font face=&quot;宋体&quot;&gt;时间槽&lt;/font&gt;" style="text;html=1;strokeColor=none;fillColor=none;align=center;verticalAlign=middle;whiteSpace=wrap;rounded=0;" vertex="1" parent="1">
          <mxGeometry x="360" y="220" width="60" height="30" as="geometry" />
        </mxCell>
      </root>
    </mxGraphModel>
  </diagram>
</mxfile>
